name GIL06_fast3.mot
datacolumns 153
datarows 4
range 0.11666668 0.14166668
endheader

                time	           pelvis_tx	           pelvis_ty	           pelvis_tz	         pelvis_tilt	         pelvis_list	     pelvis_rotation	       hip_flexion_r	     hip_adduction_r	      hip_rotation_r	        knee_angle_r	       ankle_angle_r	    subtalar_angle_r	         mtp_angle_r	       hip_flexion_l	     hip_adduction_l	      hip_rotation_l	        knee_angle_l	       ankle_angle_l	    subtalar_angle_l	         mtp_angle_l	    lumbar_extension	      lumbar_bending	     lumbar_rotation	     ground_force_vx	     ground_force_vy	     ground_force_vz	     ground_force_px	     ground_force_py	     ground_force_pz	     ground_force_vx	     ground_force_vy	     ground_force_vz	     ground_force_px	     ground_force_py	     ground_force_pz	     ground_torque_x	     ground_torque_y	     ground_torque_z	     ground_torque_x	     ground_torque_y	     ground_torque_z	    ground_marker_px	    ground_marker_py	    ground_marker_pz	    ground_marker_px	    ground_marker_py	    ground_marker_pz	    ground_marker_px	    ground_marker_py	    ground_marker_pz	    ground_marker_px	    ground_marker_py	    ground_marker_pz	    ground_marker_px	    ground_marker_py	    ground_marker_pz	    ground_marker_px	    ground_marker_py	    ground_marker_pz	    ground_marker_px	    ground_marker_py	    ground_marker_pz	    ground_marker_px	    ground_marker_py	    ground_marker_pz	    ground_marker_px	    ground_marker_py	    ground_marker_pz	    ground_marker_px	    ground_marker_py	    ground_marker_pz	    ground_marker_px	    ground_marker_py	    ground_marker_pz	    ground_marker_px	    ground_marker_py	    ground_marker_pz	    ground_marker_px	    ground_marker_py	    ground_marker_pz	    ground_marker_px	    ground_marker_py	    ground_marker_pz	    ground_marker_px	    ground_marker_py	    ground_marker_pz	    ground_marker_px	    ground_marker_py	    ground_marker_pz	    ground_marker_px	    ground_marker_py	    ground_marker_pz	    ground_marker_px	    ground_marker_py	    ground_marker_pz	    ground_marker_px	    ground_marker_py	    ground_marker_pz	    ground_marker_px	    ground_marker_py	    ground_marker_pz	    ground_marker_px	    ground_marker_py	    ground_marker_pz	    ground_marker_px	    ground_marker_py	    ground_marker_pz	    ground_marker_px	    ground_marker_py	    ground_marker_pz	    ground_marker_px	    ground_marker_py	    ground_marker_pz	    ground_marker_px	    ground_marker_py	    ground_marker_pz	    ground_marker_px	    ground_marker_py	    ground_marker_pz	    ground_marker_px	    ground_marker_py	    ground_marker_pz	    ground_marker_px	    ground_marker_py	    ground_marker_pz	    ground_marker_px	    ground_marker_py	    ground_marker_pz	    ground_marker_px	    ground_marker_py	    ground_marker_pz	    ground_marker_px	    ground_marker_py	    ground_marker_pz	    ground_marker_px	    ground_marker_py	    ground_marker_pz	    ground_marker_px	    ground_marker_py	    ground_marker_pz	    ground_marker_px	    ground_marker_py	    ground_marker_pz	    ground_marker_px	    ground_marker_py	    ground_marker_pz	    ground_marker_px	    ground_marker_py	    ground_marker_pz	    ground_marker_px	    ground_marker_py	    ground_marker_pz	
          0.11666668	          0.06563713	          0.83125627	         -0.25984633	         -3.05529785	          5.39987278	         -5.92884207	         -6.09941339	         -9.12289143	         -2.23112082	        -43.38532639	        -31.30519485	          0.00000000	          0.00000000	         27.98634338	          4.38964415	          1.56845045	        -19.91114807	         -3.99949718	          0.00000000	          0.00000000	         -3.74673986	         -3.96487665	          9.28600979	          0.00000000	          0.00000000	          0.00000000	          0.62956982	          0.00000000	         -0.20499060	       -179.12349886	        812.39295969	         41.85083652	          0.14094769	          0.00000000	         -0.31917691	          0.00000000	          0.00000000	          0.00000000	          0.00000000	          2.67758423	          0.00000000	         -0.03968854	          0.75405079	         -0.27976465	         -0.06945001	          0.75294477	         -0.20321538	         -0.05014247	          0.76283652	         -0.35732508	         -0.13689767	          0.37769431	         -0.17453247	          0.10093367	          0.42451724	         -0.33140430	         -0.42289352	          0.16081755	         -0.19958095	          0.12670586	          0.05782770	         -0.31335106	          0.06563713	          0.83125627	         -0.25984633	          0.05066283	          0.82358462	         -0.14032382	          0.08061143	          0.83892798	         -0.37936884	         -0.18121970	          0.89815444	         -0.24669194	         -0.17944959	          0.89938074	         -0.30056110	         -0.14657742	          0.38482156	         -0.10405017	          0.11382016	          0.42488340	         -0.40173247	         -0.10567299	          0.36609009	         -0.25564659	          0.08727112	          0.40660164	         -0.24453017	         -0.43560672	          0.17365594	         -0.16558388	          0.11776961	          0.05530941	         -0.35174444	         -0.40463710	          0.15287192	         -0.23088768	          0.11956050	          0.07437589	         -0.27410641	         -0.15325058	          1.32262182	         -0.27539533	         -0.01933393	          1.26451194	         -0.24281606	         -0.02306163	          1.26570904	         -0.32638088	         -0.03812490	          1.25889862	         -0.29606041	          0.01865182	          1.18880796	         -0.29844812	          0.03466125	          0.51584291	         -0.08117180	          0.19007675	          0.65246874	         -0.31793165	          0.00562833	          0.53738326	         -0.11227659	          0.14688095	          0.64917248	         -0.33654019	         -0.02414596	          0.46629786	         -0.12129590	          0.15981799	          0.57771271	         -0.32860464	         -0.26169509	          0.18938337	         -0.14232169	          0.11904357	          0.15634865	         -0.42279339	         -0.28470948	          0.22107336	         -0.16327420	          0.11498698	          0.17106134	         -0.37824523	         -0.41682982	          0.05953874	         -0.20608294	          0.23358750	          0.04893615	         -0.32525042	
          0.12500001	          0.07785051	          0.83323193	         -0.26206011	         -2.79471684	          5.53115749	         -5.63175154	         -4.87327147	         -9.70539188	         -2.37398124	        -46.31090164	        -31.18925667	          0.00000000	          0.00000000	         26.81044388	          5.02075434	          1.97154093	        -19.80509567	         -3.41541147	          0.00000000	          0.00000000	         -4.10580969	         -4.06594086	          8.91011906	          0.00000000	          0.00000000	          0.00000000	          0.63058179	          0.00000000	         -0.20534534	       -172.23055967	        819.78181224	         41.21087784	          0.14311411	          0.00000000	         -0.31954080	          0.00000000	          0.00000000	          0.00000000	          0.00000000	          2.97796265	          0.00000000	         -0.02722713	          0.75570333	         -0.28188193	         -0.05658984	          0.75403970	         -0.20511559	         -0.03801158	          0.76457304	         -0.35927239	         -0.11471546	          0.37581226	         -0.17260274	          0.10691290	          0.42499232	         -0.33230212	         -0.40546533	          0.16627644	         -0.19881964	          0.12721974	          0.05781250	         -0.31323054	          0.07785051	          0.83323193	         -0.26206011	          0.06351683	          0.82510513	         -0.14312355	          0.09218419	          0.84135872	         -0.38099664	         -0.16926016	          0.89849019	         -0.24680427	         -0.16776407	          0.90044880	         -0.30067992	         -0.12443200	          0.38336003	         -0.10216930	          0.12016515	          0.42506772	         -0.40256324	         -0.08073749	          0.36115265	         -0.25179952	          0.09378795	          0.40781376	         -0.24471316	         -0.41793036	          0.17931727	         -0.16480772	          0.11815394	          0.05531843	         -0.35159510	         -0.38781056	          0.15750031	         -0.22989534	          0.11980487	          0.07477725	         -0.27405667	         -0.14115220	          1.32423377	         -0.27628058	         -0.00683070	          1.26599610	         -0.24375556	         -0.01039636	          1.26733351	         -0.32649708	         -0.02580493	          1.26022625	         -0.29693547	          0.03132014	          1.19042122	         -0.29905820	          0.05415947	          0.51877254	         -0.08037455	          0.19991474	          0.65226710	         -0.31858072	          0.02500529	          0.53867221	         -0.11168318	          0.15490431	          0.65058541	         -0.33635283	         -0.00277027	          0.46640712	         -0.11931032	          0.16698417	          0.57797694	         -0.32928047	         -0.24384254	          0.19036506	         -0.14103322	          0.12078501	          0.15597436	         -0.42287984	         -0.26653078	          0.22333041	         -0.16290501	          0.11652886	          0.17137361	         -0.37854937	         -0.40207636	          0.06422569	         -0.20420964	          0.23388293	          0.04840799	         -0.32496527	
          0.13333336	          0.08974822	          0.83511889	         -0.26410049	         -2.58970642	          5.65890265	         -5.30834532	         -3.48611164	        -10.21280479	         -2.52144027	        -49.27817154	        -30.18673897	          0.00000000	          0.00000000	         25.57966232	          5.61938000	          2.39121866	        -19.45571709	         -2.93165803	          0.00000000	          0.00000000	         -4.37163496	         -4.51042128	          8.20356560	          0.00000000	          0.00000000	          0.00000000	          0.63173059	          0.00000000	         -0.20572374	       -164.33868066	        830.00641647	         40.65451657	          0.14564136	          0.00000000	         -0.31998370	          0.00000000	          0.00000000	          0.00000000	          0.00000000	          3.21037109	          0.00000000	         -0.01517606	          0.75735462	         -0.28375643	         -0.04408550	          0.75516832	         -0.20678793	         -0.02630265	          0.76632893	         -0.36099440	         -0.09196883	          0.37421966	         -0.17087737	          0.11194196	          0.42523581	         -0.33326444	         -0.38716650	          0.17170092	         -0.19834213	          0.12769365	          0.05780686	         -0.31318513	          0.08974822	          0.83511889	         -0.26410049	          0.07609120	          0.82654768	         -0.14567176	          0.10340524	          0.84369010	         -0.38252926	         -0.15750577	          0.89899480	         -0.24698092	         -0.15622330	          0.90163344	         -0.30084497	         -0.10177148	          0.38208684	         -0.10049082	          0.12550564	          0.42502597	         -0.40346581	         -0.05679142	          0.35774082	         -0.24778987	          0.09418485	          0.41115385	         -0.24374732	         -0.39931387	          0.18478125	         -0.16423060	          0.11840362	          0.05531497	         -0.35149616	         -0.37046641	          0.16366953	         -0.22982763	          0.12090008	          0.07487822	         -0.27402714	         -0.12905535	          1.32595468	         -0.27700534	          0.00524345	          1.26760805	         -0.24431460	          0.00216102	          1.26854074	         -0.32771283	         -0.01358904	          1.26162457	         -0.29772514	          0.04362701	          1.19171429	         -0.29931855	          0.07360243	          0.52207810	         -0.07970452	          0.20935939	          0.65148848	         -0.31920066	          0.04344917	          0.54089433	         -0.11066251	          0.16485813	          0.65038145	         -0.33766443	          0.01845609	          0.46718186	         -0.11730434	          0.17448939	          0.57766372	         -0.32923672	         -0.22507395	          0.19145307	         -0.14040971	          0.12195812	          0.15557058	         -0.42299640	         -0.24820885	          0.22617623	         -0.16249475	          0.11809417	          0.17127712	         -0.37870079	         -0.38509360	          0.06909327	         -0.20213483	          0.23408316	          0.04797766	         -0.32478222	
          0.14166668	          0.10135062	          0.83687550	         -0.26592058	         -2.45174026	          5.78186178	         -4.96639585	         -1.93490982	        -10.64124966	         -2.64509416	        -52.23279190	        -28.49647713	          0.00000000	          0.00000000	         24.33792496	          6.17354441	          2.78189135	        -18.92907524	         -2.53615642	          0.00000000	          0.00000000	         -4.58404541	         -4.82284641	          7.65253544	          0.00000000	          0.00000000	          0.00000000	          0.63308331	          0.00000000	         -0.20615904	       -155.64601034	        841.55049585	         40.25475663	          0.14815616	          0.00000000	         -0.32049640	          0.00000000	          0.00000000	          0.00000000	          0.00000000	          3.29114136	          0.00000000	         -0.00354092	          0.75898427	         -0.28533888	         -0.03194240	          0.75631875	         -0.20819825	         -0.01499762	          0.76808155	         -0.36245432	         -0.06873161	          0.37296832	         -0.16936065	          0.11623012	          0.42531148	         -0.33423758	         -0.36795935	          0.17689867	         -0.19814308	          0.12814577	          0.05780894	         -0.31320608	          0.10135062	          0.83687550	         -0.26592058	          0.08838400	          0.82787424	         -0.14787948	          0.11431725	          0.84587675	         -0.38396165	         -0.14593340	          0.89968657	         -0.24720922	         -0.14481796	          0.90295339	         -0.30104950	         -0.07863913	          0.38104615	         -0.09901267	          0.13000619	          0.42481011	         -0.40439612	         -0.03426447	          0.35535920	         -0.24335085	          0.09582980	          0.41292390	         -0.24557281	         -0.37975806	          0.18987377	         -0.16386937	          0.11855134	          0.05530971	         -0.35144156	         -0.35186237	          0.16968881	         -0.23004742	          0.12246343	          0.07456498	         -0.27398634	         -0.11696827	          1.32766545	         -0.27782261	          0.01719277	          1.26899886	         -0.24505797	          0.01437430	          1.26972485	         -0.32905969	         -0.00151808	          1.26313233	         -0.29837802	          0.05555422	          1.19286382	         -0.30002794	          0.09295848	          0.52577043	         -0.07921312	          0.21845777	          0.65012056	         -0.31987077	          0.06177490	          0.54361892	         -0.11000994	          0.17575291	          0.65112865	         -0.33674535	          0.03909258	          0.46882865	         -0.11537076	          0.18239269	          0.57627034	         -0.32945147	         -0.20537791	          0.19262414	         -0.14037159	          0.12267996	          0.15515319	         -0.42314276	         -0.22840770	          0.22856954	         -0.16215166	          0.11953505	          0.17064230	         -0.37861222	         -0.36596867	          0.07390625	         -0.19998424	          0.23421016	          0.04760880	         -0.32469153	
